<svg xmlns="http://www.w3.org/2000/svg" viewBox="0 0 640 400" width="640" height="400" role="img">
<title>Conveyor belt with a bottle, a can and a box, each inside a labelled detection box</title>
<rect width="640" height="400" fill="#f8fafa"/>
<rect x="40" y="262" width="560" height="34" rx="17" fill="#dfe6e8" stroke="#46546b" stroke-width="2"/>
<circle cx="64" cy="279" r="9" fill="#f8fafa" stroke="#46546b" stroke-width="2"/>
<circle cx="112" cy="279" r="9" fill="#f8fafa" stroke="#46546b" stroke-width="2"/>
<circle cx="160" cy="279" r="9" fill="#f8fafa" stroke="#46546b" stroke-width="2"/>
<circle cx="208" cy="279" r="9" fill="#f8fafa" stroke="#46546b" stroke-width="2"/>
<circle cx="256" cy="279" r="9" fill="#f8fafa" stroke="#46546b" stroke-width="2"/>
<circle cx="304" cy="279" r="9" fill="#f8fafa" stroke="#46546b" stroke-width="2"/>
<circle cx="352" cy="279" r="9" fill="#f8fafa" stroke="#46546b" stroke-width="2"/>
<circle cx="400" cy="279" r="9" fill="#f8fafa" stroke="#46546b" stroke-width="2"/>
<circle cx="448" cy="279" r="9" fill="#f8fafa" stroke="#46546b" stroke-width="2"/>
<circle cx="496" cy="279" r="9" fill="#f8fafa" stroke="#46546b" stroke-width="2"/>
<circle cx="544" cy="279" r="9" fill="#f8fafa" stroke="#46546b" stroke-width="2"/>
<circle cx="592" cy="279" r="9" fill="#f8fafa" stroke="#46546b" stroke-width="2"/>
<rect x="96" y="150" width="54" height="108" rx="14" fill="#316b8b"/><rect x="112" y="128" width="22" height="26" rx="4" fill="#316b8b"/>
<rect x="276" y="176" width="66" height="82" rx="10" fill="#39a77b"/>
<rect x="444" y="168" width="104" height="90" rx="4" fill="#9ed54a"/><line x1="444" y1="196" x2="548" y2="196" stroke="#14213a" stroke-opacity="0.25" stroke-width="3"/>
<rect x="84" y="116" width="78" height="150" fill="none" stroke="#14213a" stroke-width="3"/>
<rect x="82.5" y="90" width="115" height="26" fill="#14213a"/>
<text x="90" y="108" font-family="Bricolage Grotesque, Helvetica Neue, Arial, sans-serif" font-size="14" font-weight="700" fill="#fff" text-anchor="start">plastic 0.96</text>
<rect x="264" y="164" width="90" height="102" fill="none" stroke="#14213a" stroke-width="3"/>
<rect x="262.5" y="138" width="98" height="26" fill="#14213a"/>
<text x="270" y="156" font-family="Bricolage Grotesque, Helvetica Neue, Arial, sans-serif" font-size="14" font-weight="700" fill="#fff" text-anchor="start">metal 0.94</text>
<rect x="432" y="156" width="128" height="110" fill="none" stroke="#14213a" stroke-width="3"/>
<rect x="430.5" y="130" width="98" height="26" fill="#14213a"/>
<text x="438" y="148" font-family="Bricolage Grotesque, Helvetica Neue, Arial, sans-serif" font-size="14" font-weight="700" fill="#fff" text-anchor="start">paper 0.91</text>
<text x="320" y="346" font-family="Bricolage Grotesque, Helvetica Neue, Arial, sans-serif" font-size="15" font-weight="400" fill="#46546b" text-anchor="middle">real-time detection on a sorting belt</text>
</svg>
